# xmcd
#
# Track frame offsets:
#	150
#	16415
#	34102
#	56301
#	74261
#	96864
#	119511
#	135802
#	155492
#	172518
#	184773
#
# Disc length: 2761 seconds
# Revision: 3
# Processed by: cddbd v1.5.2PL0 Copyright (c) Steve Scherf et al.
# Submitted via: dBpowerAMP V12.0
#
DISCID=810ac70b
DTITLE=Various Artist - Binh yen
DYEAR=2003
DGENRE=Contemporary Pop
TTITLE0=Tran Thu Ha - La yeu chua tung yeu
TTITLE1=Le Hieu - Tim anh troi ve em
TTITLE2=Tran Thu Ha - Tinh ca
TTITLE3=Ho Ngoc Ha - Lan xua
TTITLE4=Le Hieu - Tan phai
TTITLE5=Tran Thu Ha - Tinh oi
TTITLE6=Ho Ngoc Ha - Mot ngay
TTITLE7=Le Hieu - May mua dong
TTITLE8=Tran Thu Ha - Gio
TTITLE9=Le Hieu - Em (hay la trai tim toi)
TTITLE10=Tran Thu Ha and Tran Hieu - Binh yen
EXTD=
EXTT0=
EXTT1=
EXTT2=
EXTT3=
EXTT4=
EXTT5=
EXTT6=
EXTT7=
EXTT8=
EXTT9=
EXTT10=
PLAYORDER=
